# xmcd
# 
# Track frame offsets:
#     150
#     88781
#     166761
#     264725
# 
# Disc length: 4432
# 
# Revision: 0
# Processed by: cddbd v1.5.2PL0 Copyright (c) Steve Scherf et al.
# Submitted via: fre:ac v1.0.17
# 
DISCID=2b114e04
DTITLE=Lego Feet - SKA001CD
DYEAR=2011
DGENRE=Electronic
TTITLE0=Part 1
TTITLE1=Part 2
TTITLE2=Part 3
TTITLE3=Part 4
EXTD=
EXTT0=
EXTT1=
EXTT2=
EXTT3=
PLAYORDER=
